HIERARCHY
ROOT Hips
{
	OFFSET 0.0000 0.0000 0.0000
	CHANNELS 6 Xposition Yposition Zposition Zrotation Xrotation Yrotation
	JOINT Ab
	{
		OFFSET -0.0000 8.0846 -0.0000
		CHANNELS 3 Zrotation Xrotation Yrotation
		JOINT Chest
		{
			OFFSET -0.0000 25.0068 -0.0000
			CHANNELS 3 Zrotation Xrotation Yrotation
			JOINT Neck
			{
				OFFSET -0.0000 25.0068 0.0000
				CHANNELS 3 Zrotation Xrotation Yrotation
				JOINT Head
				{
					OFFSET -0.0000 10.7556 0.0000
					CHANNELS 3 Zrotation Xrotation Yrotation
					End Site
					{
						OFFSET -0.0000 16.6222 0.0000
					}
				}
			}
			JOINT LeftCollar
			{
				OFFSET -0.0000 25.0068 0.0000
				CHANNELS 3 Zrotation Xrotation Yrotation
				JOINT LeftShoulder
				{
					OFFSET 19.5556 -0.0000 0.0000
					CHANNELS 3 Zrotation Xrotation Yrotation
					JOINT LeftElbow
					{
						OFFSET 27.1828 0.0000 0.0000
						CHANNELS 3 Zrotation Xrotation Yrotation
						JOINT LeftWrist
						{
							OFFSET 23.3157 0.0000 0.0000
							CHANNELS 3 Zrotation Xrotation Yrotation
							End Site
							{
								OFFSET 0.0000 -14.6667 0.0000
							}
						}
					}
				}
			}
			JOINT RightCollar
			{
				OFFSET -0.0000 25.0068 0.0000
				CHANNELS 3 Zrotation Xrotation Yrotation
				JOINT RightShoulder
				{
					OFFSET -19.5556 0.0000 0.0000
					CHANNELS 3 Zrotation Xrotation Yrotation
					JOINT RightElbow
					{
						OFFSET -27.1828 0.0000 0.0000
						CHANNELS 3 Zrotation Xrotation Yrotation
						JOINT RightWrist
						{
							OFFSET -23.3157 0.0000 0.0000
							CHANNELS 3 Zrotation Xrotation Yrotation
							End Site
							{
								OFFSET -0.0000 -14.6667 0.0000
							}
						}
					}
				}
			}
		}
	}
	JOINT LeftHip
	{
		OFFSET 11.7333 0.0000 0.0000
		CHANNELS 3 Zrotation Xrotation Yrotation
		JOINT LeftKnee
		{
			OFFSET -0.0000 -40.8688 0.0000
			CHANNELS 3 Zrotation Xrotation Yrotation
			JOINT LeftAnkle
			{
				OFFSET -0.0000 -44.4337 0.0000
				CHANNELS 3 Zrotation Xrotation Yrotation
				End Site
				{
					OFFSET -0.0000 -4.8889 16.6222
				}
			}
		}
	}
	JOINT RightHip
	{
		OFFSET -11.7333 0.0000 0.0000
		CHANNELS 3 Zrotation Xrotation Yrotation
		JOINT RightKnee
		{
			OFFSET -0.0000 -40.8688 0.0000
			CHANNELS 3 Zrotation Xrotation Yrotation
			JOINT RightAnkle
			{
				OFFSET -0.0000 -44.4337 0.0000
				CHANNELS 3 Zrotation Xrotation Yrotation
				End Site
				{
					OFFSET -0.0000 -4.8889 16.6222
				}
			}
		}
	}
}
MOTION
Frames: 24
Frame Time: 0.010000
-5.5511 88.7021 186.5325 2.6189 359.5502 174.6914 1.7863 359.1909 358.1508 358.6407 12.1016 358.2832 1.3439 353.9592 1.8821 1.4317 19.9873 1.5606 339.4883 358.5089 8.2620 301.1371 31.5839 354.2340 16.4086 354.4520 322.8214 82.5933 1.0481 342.5944 22.5542 359.3025 356.4838 59.1696 43.9851 8.7592 337.3185 354.1595 28.4376 277.1583 352.6405 16.8552 1.2280 357.2511 358.2566 359.2823 9.8741 357.0812 359.7052 353.3465 21.7755 0.4133 350.5793 0.6339 358.6553 19.7648 8.7227 357.8565 345.4805 337.8128 
-5.5581 88.7028 186.5234 2.6127 359.5517 174.7008 1.7810 359.2179 358.1484 358.6358 12.0618 358.2807 1.3446 353.9769 1.8654 1.4130 19.9934 1.5485 339.4815 358.5007 8.2975 301.1425 31.6859 354.2167 16.4502 354.4202 322.8819 82.6166 1.0029 342.6139 22.5617 359.3020 356.4814 59.1872 43.9876 8.7322 337.5294 354.2290 28.6973 276.8443 353.3607 17.7926 1.2179 357.2383 358.2314 359.2813 9.9051 357.0435 359.7841 353.2916 21.8057 0.3998 350.5876 0.5988 358.6501 19.7646 8.7289 357.8471 345.4734 337.8322 
-5.5655 88.7025 186.5165 2.6042 359.5392 174.7141 1.7625 359.2124 358.1457 358.6521 12.0662 358.2772 1.3350 353.9537 1.8518 1.4114 20.0045 1.5344 339.4829 358.5009 8.2447 301.0828 31.4738 354.2909 16.3210 354.4747 322.7989 82.6817 1.0423 342.4821 22.5536 359.3026 356.4790 59.1907 43.9865 8.7417 337.3353 354.1476 28.4483 277.1237 352.6900 16.8726 1.2049 357.2115 358.2383 359.2836 9.9352 357.0088 359.8244 353.2809 21.8244 0.3860 350.5887 0.6269 358.6584 19.7521 8.7047 357.8241 345.4648 337.8283 
-5.5728 88.7018 186.5049 2.6032 359.5378 174.7247 1.7513 359.2181 358.1432 358.6623 12.0567 358.2727 1.3254 353.9724 1.8446 1.4271 19.9927 1.5267 339.4710 358.4990 8.2660 301.0836 31.6114 354.2993 16.4279 354.4366 322.8345 82.5772 1.0216 342.5866 22.5539 359.3063 356.4895 59.2062 43.9599 8.7197 337.5391 354.2245 28.7163 276.8441 353.3890 17.8475 1.2027 357.1965 358.1922 359.2632 9.9690 357.0320 359.7899 353.2489 21.8340 0.3775 350.6026 0.6272 358.6615 19.7371 8.6844 357.8018 345.4589 337.8326 
-5.5801 88.7015 186.4952 2.5963 359.5248 174.7332 1.7299 359.2150 358.1420 358.6798 12.0465 358.2699 1.3130 353.9843 1.8302 1.4326 19.9887 1.5116 339.4563 358.4997 8.2704 301.0710 31.5920 354.3115 16.4063 354.4642 322.8462 82.6258 0.9918 342.5502 22.5544 359.2939 356.4858 59.2008 43.9705 8.7233 337.5357 354.1837 28.7152 276.8605 353.4365 17.8842 1.1955 357.1655 358.1688 359.2476 10.0087 357.0449 359.8006 353.2335 21.8494 0.3660 350.6063 0.6545 358.6735 19.7291 8.6669 357.8521 345.4212 337.8089 
-5.5878 88.7015 186.4817 2.5957 359.5301 174.7378 1.7093 359.2229 358.1471 358.7002 12.0571 358.2737 1.2889 353.9623 1.8185 1.4663 20.0112 1.4956 339.4401 358.5102 8.2768 301.0687 31.6074 354.3140 16.3975 354.4421 322.8425 82.6446 1.0081 342.5659 22.5455 359.2947 356.4971 59.2206 43.9576 8.7031 337.5696 354.1969 28.7613 276.5402 353.7510 17.9712 1.1933 357.1299 358.0929 359.2039 10.0856 357.1538 359.8777 353.1987 21.8658 0.3607 350.6288 0.6796 358.6784 19.7098 8.6432 357.8576 345.4142 337.8053 
-5.5974 88.7025 186.4704 2.5937 359.5266 174.7423 1.6972 359.2323 358.1522 358.7031 12.0537 358.2783 1.2985 353.9483 1.8040 1.4483 20.0383 1.4823 339.4449 358.4887 8.2355 300.9852 31.4310 354.3994 16.3417 354.4480 322.7525 82.6205 1.0399 342.4367 22.5424 359.2913 356.4952 59.2270 43.9566 8.7035 337.5297 354.1842 28.7231 276.8741 353.4277 17.9346 1.1975 357.1433 358.0858 359.1957 10.0782 357.0713 359.8820 353.2018 21.9105 0.3534 350.6440 0.6971 358.6793 19.6912 8.6280 357.7648 345.4262 337.7974 
-5.6055 88.7037 186.4591 2.5895 359.5212 174.7516 1.6854 359.2497 358.1553 358.6974 12.0294 358.2822 1.3054 353.9525 1.7887 1.4375 20.0575 1.4696 339.4405 358.5125 8.2238 300.9626 31.3145 354.4306 16.2143 354.5008 322.7432 82.6570 1.0332 342.3295 22.5542 359.2957 356.4872 59.2068 43.9380 8.7193 337.7058 354.2474 28.6281 276.2602 353.3603 18.2775 1.1843 357.1085 358.0463 359.1948 10.1467 357.0790 359.8353 353.1492 21.9167 0.3440 350.6477 0.6955 358.6798 19.6900 8.6006 358.4485 345.2898 337.9530 
-5.6179 88.7050 186.4487 2.5858 359.5090 174.7564 1.6815 359.2547 358.1636 358.6838 12.0227 358.2914 1.3001 354.0907 1.6817 1.4234 19.9962 1.3670 339.4477 358.4938 8.1968 300.9077 31.1988 354.4965 16.1771 354.4925 322.6501 82.6603 1.0614 342.2684 22.5636 359.3085 356.4869 59.1708 43.9481 8.7496 337.7284 354.2754 28.5773 276.3421 353.1530 18.3068 1.1810 357.1232 358.0496 359.1744 10.0981 357.0740 359.9020 353.1795 21.9467 0.3278 350.6472 0.6992 358.6848 19.6860 8.6194 358.0342 345.3337 337.8399 
-5.6335 88.7052 186.4370 2.5788 359.5003 174.7569 1.6774 359.2619 358.1658 358.6690 12.0188 358.2946 1.2752 354.1034 1.6517 1.4483 20.0188 1.3360 339.4455 358.5018 8.1938 300.8851 31.1599 354.5353 16.1240 354.5154 322.6399 82.6773 1.0194 342.2250 22.5648 359.2834 356.4906 59.1517 43.9829 8.7599 337.6778 354.2513 28.5542 276.5654 352.9462 18.2630 1.1714 357.1104 358.0260 359.1414 10.1106 357.1153 359.9429 353.1731 21.9720 0.3019 350.6539 0.7132 358.7070 19.6752 8.5610 357.9217 345.3470 337.8067 
-5.6510 88.7054 186.4280 2.5670 359.4731 174.7654 1.6672 359.2586 358.1641 358.6563 12.0001 358.2947 1.2648 354.0952 1.6493 1.4570 20.0542 1.3319 339.4423 358.5050 8.1832 300.8441 31.0800 354.5947 16.0811 354.5167 322.5708 82.6750 1.0341 342.1654 22.5800 359.3028 356.4905 59.0766 44.0041 8.8049 337.8077 354.2852 28.5637 276.2206 353.2300 18.3560 1.1511 357.0685 358.0114 359.1544 10.1540 357.0566 359.9496 353.1433 21.9821 0.2691 350.6359 0.7104 358.7176 19.7047 8.4718 358.4851 345.2074 338.0321 
-5.6708 88.7054 186.4138 2.5566 359.4632 174.7775 1.6712 359.2816 358.1599 358.6190 11.9605 358.2939 1.2704 354.1002 1.6382 1.4310 20.0954 1.3241 339.4330 358.5018 8.2054 300.8316 31.0933 354.6376 16.1080 354.4994 322.5211 82.6203 1.0506 342.2308 22.6040 359.3062 356.5136 59.0445 44.0213 8.7987 337.6555 354.2272 28.4867 276.5827 352.9784 17.7276 1.1297 357.0626 358.0017 359.1512 10.1593 357.0401 359.9706 353.1450 21.9947 0.2327 350.6433 0.6971 358.7340 19.6851 8.4312 358.2954 345.2048 338.0281 
-5.6901 88.7049 186.3968 2.5496 359.4598 174.7829 1.6583 359.2978 358.1728 358.6060 11.9486 358.3094 1.2561 354.0981 1.6270 1.4408 20.1177 1.3119 339.4229 358.5031 8.2059 300.8118 31.0525 354.6876 16.0928 354.4985 322.4319 82.6074 1.1015 342.3270 22.6029 359.3101 356.5463 59.0592 44.0299 8.7733 337.5730 354.2134 28.4487 276.7462 352.8976 17.5120 1.1164 357.0705 357.9979 359.1364 10.1565 357.0166 359.9641 353.1323 22.0196 0.2021 350.6550 0.6927 358.7530 19.6761 8.3993 358.3743 345.0606 337.9179 
-5.7114 88.7052 186.3800 2.5429 359.4577 174.7929 1.6473 359.3177 358.1853 358.5893 11.9389 358.3240 1.2439 354.0947 1.6101 1.4502 20.1427 1.2918 339.4102 358.5197 8.2058 300.8060 31.0174 354.7115 16.0579 354.5167 322.3910 82.6113 1.0784 342.3257 22.6130 359.3143 356.5481 59.0196 44.0403 8.8029 337.5807 354.2475 28.4267 276.7509 352.8871 17.4854 1.0995 357.0720 357.9857 359.1275 10.1645 357.0093 359.9555 353.1166 22.0268 0.1738 350.6695 0.6803 358.7461 19.6388 8.5231 358.9674 344.6640 337.5776 
-5.7348 88.7062 186.3613 2.5327 359.4488 174.8035 1.6126 359.3239 358.2141 358.5916 11.9461 358.3527 1.2620 354.0720 1.5896 1.4322 20.1828 1.2727 339.3986 358.4952 8.2203 300.7956 31.0613 354.7393 16.0995 354.4829 322.3226 82.6069 1.0685 342.3771 22.6531 359.3009 356.4742 58.8702 43.8436 8.9298 337.7379 354.3052 28.4763 276.7998 352.8905 17.7062 1.0783 357.0619 357.9996 359.1205 10.1817 356.9853 359.9916 353.0925 22.0282 0.1429 350.6740 0.6760 358.7122 19.5731 8.8487 358.9640 344.6598 337.2796 
-5.7596 88.7067 186.3408 2.5230 359.4401 174.8252 1.5818 359.3268 358.2228 358.5984 11.9481 358.3601 1.2417 354.0756 1.5597 1.4501 20.2033 1.2398 339.3804 358.4887 8.2710 300.8196 31.2833 354.7252 16.2134 354.4115 322.2736 82.5770 1.2039 342.7381 22.6687 359.2829 356.4508 58.8173 43.7497 8.9576 337.8057 354.3189 28.4974 276.8640 352.8937 17.8251 1.0585 357.0429 358.0086 359.1117 10.2202 356.9306 0.0489 353.0714 22.0553 0.1090 350.6828 0.6613 358.7406 19.5994 8.6502 359.0424 344.5844 337.4131 
-5.7890 88.7063 186.3192 2.5085 359.4352 174.8514 1.5663 359.3404 358.2214 358.5772 11.9377 358.3616 1.2070 354.0925 1.5447 1.4774 20.2051 1.2223 339.3640 358.4891 8.3307 300.8322 31.3905 354.7379 16.3178 354.3472 322.0534 82.5056 1.5386 343.2111 22.6818 359.2858 356.4653 58.7638 43.7839 8.9822 337.8464 354.3315 28.4470 276.8438 352.8258 17.8211 1.0310 357.0366 357.9814 359.0943 10.2376 356.9138 0.0766 353.0604 22.0733 0.0682 350.6853 0.6328 358.7577 19.6375 8.5305 358.9786 344.5468 337.5831 
-5.8202 88.7065 186.2999 2.4943 359.4206 174.8769 1.5518 359.3575 358.2173 358.5527 11.9060 358.3599 1.1584 354.1321 1.5371 1.5193 20.1932 1.2102 339.3611 358.4851 8.3558 300.7906 31.3200 354.8368 16.2718 354.3705 321.9087 82.5854 1.5600 343.2235 22.6907 359.3046 356.4824 58.6882 43.8660 9.0640 338.0556 354.3918 28.4798 276.5334 353.1798 18.5888 1.0026 357.0121 357.9552 359.0806 10.2670 356.9041 0.0647 353.0240 22.0786 0.0298 350.6719 0.6159 358.7315 19.6028 8.8254 358.7866 344.5497 337.4361 
-5.8526 88.7070 186.2818 2.4875 359.3969 174.9074 1.5166 359.3582 358.2340 358.5608 11.8997 358.3758 1.1279 354.1372 1.5207 1.5464 20.2034 1.1918 339.3431 358.4686 8.4892 300.8334 31.7687 354.7471 16.5258 354.2386 322.0956 82.5150 1.4283 343.5097 22.6839 359.3050 356.4944 58.6337 43.9376 9.1303 338.0964 354.3790 28.5266 276.5623 353.4766 19.1752 0.9782 356.9663 357.9242 359.0699 10.3199 356.8930 0.0272 352.9678 22.0917 359.9966 350.6576 0.6218 358.7356 19.6219 8.8238 358.6649 344.6179 337.4733 
-5.8881 88.7089 186.2643 2.4803 359.3725 174.9376 1.4768 359.3611 358.2607 358.5712 11.8975 358.4018 1.1346 354.1153 1.4997 1.5148 20.2567 1.1744 339.2997 358.4549 8.5111 300.8957 32.3726 354.8130 16.9515 354.0584 322.2619 82.4398 1.2652 344.0748 22.6784 359.2835 356.5023 58.6090 43.9544 9.1388 338.0240 354.3363 28.5372 276.8096 353.4923 19.3389 0.9505 356.9234 357.9168 359.0638 10.3628 356.8620 0.0509 352.9339 22.1062 359.9611 350.6394 0.6349 358.7452 19.6412 8.8210 358.4006 344.7794 337.5400 
-5.9268 88.7111 186.2462 2.4705 359.3438 174.9633 1.4472 359.3722 358.2853 358.5571 11.8761 358.4282 1.1707 354.0941 1.4833 1.4462 20.3241 1.1672 339.2705 358.4477 8.4837 300.9250 32.6921 354.9283 17.2079 353.9992 322.3579 82.4636 1.1453 344.4756 22.6898 359.2886 356.4809 58.5202 43.9662 9.2137 338.1060 354.3606 28.5218 276.7675 353.5205 19.3883 0.9222 356.8946 357.7677 359.0267 10.3686 356.9717 0.1127 352.9251 22.1337 359.9215 350.6145 0.6550 358.7644 19.6600 8.7767 358.4412 344.7100 337.5301 
-5.9687 88.7130 186.2286 2.4657 359.3065 174.9955 1.4426 359.3859 358.2945 358.5168 11.8334 358.4410 1.1843 354.1055 1.4670 1.4163 20.3458 1.1553 339.2772 358.4279 8.5475 300.9097 32.9036 354.9157 17.3841 353.9813 322.5473 82.5058 1.0139 344.6904 22.7131 359.2952 356.4726 58.4296 43.9721 9.2794 338.1344 354.3806 28.5274 276.8236 353.5413 19.4546 0.8975 356.8476 357.6074 358.9883 10.3945 357.0777 0.1278 352.8816 22.1814 359.8869 350.5803 0.6724 358.7839 19.6785 8.6807 358.4897 344.6068 337.5617 
-6.0130 88.7147 186.2052 2.4617 359.2811 175.0236 1.4355 359.4004 358.3021 358.4841 11.8050 358.4522 1.1446 354.1284 1.4614 1.4464 20.3471 1.1469 339.2847 358.4193 8.5837 300.8372 32.8531 354.9599 17.3757 354.0539 322.6780 82.7441 0.8772 344.7725 22.7238 359.2859 356.5115 58.3886 43.9903 9.2804 338.1022 354.3764 28.5327 276.9202 353.5282 19.5174 0.8692 356.8053 357.5783 358.9747 10.4466 357.0503 0.1201 352.8099 22.2309 359.8517 350.5605 0.6802 358.7904 19.6995 8.6593 358.5164 344.5150 337.5399 
-6.0605 88.7158 186.1783 2.4589 359.2592 175.0407 1.4196 359.4113 358.3292 358.4553 11.7997 358.4825 1.0970 354.1210 1.4509 1.4875 20.3634 1.1309 339.2894 358.4294 8.6234 300.7841 32.7753 354.9676 17.3580 354.1022 322.8235 82.8404 0.7544 344.7585 22.7294 359.2980 356.5342 58.3016 44.0172 9.3443 338.1169 354.3904 28.4813 277.1153 353.2949 19.5458 0.8397 356.7797 357.5465 358.9584 10.4786 357.0434 0.1417 352.7796 22.2588 359.8176 350.5426 0.6850 358.8154 19.7896 8.3966 358.6493 344.3788 337.7296 
